<svg width="16" height="16" viewBox="0 0 16 16" fill="none" xmlns="http://www.w3.org/2000/svg">
<g clip-path="url(#clip0_3324_704)">
<path d="M6.66927 4.66683C6.66914 5.59392 6.94514 6.50005 7.46209 7.26964C7.97903 8.03923 8.71349 8.6374 9.57179 8.98787C10.4301 9.33835 11.3733 9.42523 12.2812 9.23744C13.1891 9.04965 14.0204 8.59571 14.6693 7.9335V8.00016C14.6693 11.6822 11.6846 14.6668 8.0026 14.6668C4.3206 14.6668 1.33594 11.6822 1.33594 8.00016C1.33594 4.31816 4.3206 1.3335 8.0026 1.3335H8.06927C7.6253 1.76758 7.2727 2.28614 7.03226 2.85862C6.79182 3.4311 6.6684 4.04591 6.66927 4.66683ZM2.66927 8.00016C2.66879 9.19015 3.06629 10.3461 3.79853 11.2841C4.53078 12.2222 5.55569 12.8883 6.71021 13.1767C7.86473 13.4651 9.08253 13.359 10.1698 12.8755C11.2571 12.3919 12.1515 11.5586 12.7106 10.5082C11.7156 10.7426 10.6771 10.7189 9.69382 10.4393C8.71051 10.1597 7.81494 9.63355 7.09208 8.91069C6.36922 8.18783 5.84304 7.29226 5.56346 6.30895C5.28388 5.32564 5.26018 4.2872 5.4946 3.29216C4.64099 3.74692 3.92713 4.42527 3.42944 5.25459C2.93176 6.08391 2.66899 7.03297 2.66927 8.00016Z" fill="#F5F9FD"/>
</g>
<defs>
<clipPath id="clip0_3324_704">
<rect width="16" height="16" fill="white"/>
</clipPath>
</defs>
</svg>
