<svg width="25" height="25" viewBox="0 0 25 25" fill="none" xmlns="http://www.w3.org/2000/svg">
<path d="M21.9383 10.938H21.1328V10.8965H12.1328V14.8965H17.7843C16.9598 17.225 14.7443 18.8965 12.1328 18.8965C8.81931 18.8965 6.13281 16.21 6.13281 12.8965C6.13281 9.58298 8.81931 6.89648 12.1328 6.89648C13.6623 6.89648 15.0538 7.47348 16.1133 8.41598L18.9418 5.58748C17.1558 3.92298 14.7668 2.89648 12.1328 2.89648C6.61031 2.89648 2.13281 7.37398 2.13281 12.8965C2.13281 18.419 6.61031 22.8965 12.1328 22.8965C17.6553 22.8965 22.1328 18.419 22.1328 12.8965C22.1328 12.226 22.0638 11.5715 21.9383 10.938Z" fill="#FBC02D"/>
<path d="M3.28516 8.24198L6.57066 10.6515C7.45966 8.45048 9.61266 6.89648 12.1322 6.89648C13.6617 6.89648 15.0532 7.47348 16.1127 8.41598L18.9412 5.58748C17.1552 3.92298 14.7662 2.89648 12.1322 2.89648C8.29116 2.89648 4.96016 5.06498 3.28516 8.24198Z" fill="#E53935"/>
<path d="M12.133 22.8968C14.716 22.8968 17.063 21.9083 18.8375 20.3008L15.7425 17.6818C14.7385 18.4423 13.4905 18.8968 12.133 18.8968C9.53197 18.8968 7.32347 17.2383 6.49147 14.9238L3.23047 17.4363C4.88547 20.6748 8.24647 22.8968 12.133 22.8968Z" fill="#4CAF50"/>
<path d="M21.9383 10.938L21.9303 10.8965H21.1328H12.1328V14.8965H17.7843C17.3883 16.015 16.6688 16.9795 15.7408 17.682C15.7413 17.6815 15.7418 17.6815 15.7423 17.681L18.8373 20.3C18.6183 20.499 22.1328 17.8965 22.1328 12.8965C22.1328 12.226 22.0638 11.5715 21.9383 10.938Z" fill="#1565C0"/>
</svg>
