<svg width="16" height="16" viewBox="0 0 16 16" fill="none" xmlns="http://www.w3.org/2000/svg">
<g clip-path="url(#clip0_3324_707)">
<path d="M7.9974 11.9998C6.93653 11.9998 5.91911 11.5784 5.16897 10.8283C4.41882 10.0781 3.9974 9.0607 3.9974 7.99984C3.9974 6.93897 4.41882 5.92156 5.16897 5.17141C5.91911 4.42126 6.93653 3.99984 7.9974 3.99984C9.05826 3.99984 10.0757 4.42126 10.8258 5.17141C11.576 5.92156 11.9974 6.93897 11.9974 7.99984C11.9974 9.0607 11.576 10.0781 10.8258 10.8283C10.0757 11.5784 9.05826 11.9998 7.9974 11.9998ZM7.9974 10.6665C8.70464 10.6665 9.38292 10.3856 9.88301 9.88546C10.3831 9.38536 10.6641 8.70708 10.6641 7.99984C10.6641 7.29259 10.3831 6.61432 9.88301 6.11422C9.38292 5.61412 8.70464 5.33317 7.9974 5.33317C7.29015 5.33317 6.61187 5.61412 6.11178 6.11422C5.61168 6.61432 5.33073 7.29259 5.33073 7.99984C5.33073 8.70708 5.61168 9.38536 6.11178 9.88546C6.61187 10.3856 7.29015 10.6665 7.9974 10.6665ZM7.33073 0.666504H8.66406V2.6665H7.33073V0.666504ZM7.33073 13.3332H8.66406V15.3332H7.33073V13.3332ZM2.34073 3.28584L3.2834 2.34317L4.6974 3.75717L3.75473 4.69984L2.34073 3.2865V3.28584ZM11.2974 12.2425L12.2401 11.2998L13.6541 12.7138L12.7114 13.6565L11.2974 12.2425ZM12.7114 2.3425L13.6541 3.28584L12.2401 4.69984L11.2974 3.75717L12.7114 2.34317V2.3425ZM3.75473 11.2998L4.6974 12.2425L3.2834 13.6565L2.34073 12.7138L3.75473 11.2998ZM15.3307 7.33317V8.6665H13.3307V7.33317H15.3307ZM2.66406 7.33317V8.6665H0.664062V7.33317H2.66406Z" fill="#F5F9FD"/>
</g>
<defs>
<clipPath id="clip0_3324_707">
<rect width="16" height="16" fill="white"/>
</clipPath>
</defs>
</svg>
