<svg width="20" height="20" viewBox="0 0 20 20" fill="none" xmlns="http://www.w3.org/2000/svg">
<path d="M1.33737 14.9998C0.914646 14.2688 0.58604 13.4873 0.359375 12.6738C0.852682 12.4229 1.26697 12.0404 1.5564 11.5687C1.84584 11.097 1.99914 10.5544 1.99935 10.0009C1.99955 9.44749 1.84666 8.90477 1.55758 8.43282C1.2685 7.96088 0.854495 7.57809 0.361375 7.32682C0.813411 5.69231 1.6741 4.19977 2.86237 2.98982C3.32647 3.29155 3.86499 3.45898 4.41835 3.4736C4.97171 3.48822 5.51833 3.34945 5.9977 3.07265C6.47708 2.79586 6.87053 2.39182 7.1345 1.90526C7.39848 1.41871 7.52268 0.868599 7.49338 0.315823C9.13548 -0.108555 10.8586 -0.107867 12.5004 0.317823C12.4713 0.870588 12.5958 1.42061 12.86 1.90703C13.1241 2.39345 13.5177 2.7973 13.9972 3.07388C14.4767 3.35047 15.0233 3.48901 15.5766 3.47417C16.13 3.45934 16.6684 3.2917 17.1324 2.98982C17.7114 3.57982 18.2254 4.25082 18.6574 4.99982C19.0904 5.74882 19.4144 6.52982 19.6354 7.32582C19.1421 7.57672 18.7278 7.9592 18.4383 8.43093C18.1489 8.90266 17.9956 9.44526 17.9954 9.99871C17.9952 10.5522 18.1481 11.0949 18.4372 11.5668C18.7263 12.0388 19.1403 12.4216 19.6334 12.6728C19.1813 14.3073 18.3206 15.7999 17.1324 17.0098C16.6683 16.7081 16.1298 16.5407 15.5764 16.526C15.023 16.5114 14.4764 16.6502 13.997 16.927C13.5177 17.2038 13.1242 17.6078 12.8602 18.0944C12.5963 18.5809 12.4721 19.131 12.5014 19.6838C10.8593 20.1082 9.13614 20.1075 7.49437 19.6818C7.52342 19.1291 7.39897 18.579 7.1348 18.0926C6.87062 17.6062 6.47702 17.2023 5.99755 16.9258C5.51808 16.6492 4.97143 16.5106 4.4181 16.5255C3.86477 16.5403 3.32634 16.7079 2.86237 17.0098C2.27137 16.4068 1.75897 15.7314 1.33737 14.9998ZM6.99738 15.1958C8.063 15.8105 8.86422 16.7968 9.24738 17.9658C9.74638 18.0128 10.2474 18.0138 10.7464 17.9668C11.1298 16.7977 11.9314 15.8113 12.9974 15.1968C14.0626 14.5805 15.3179 14.3793 16.5224 14.6318C16.8124 14.2238 17.0624 13.7888 17.2704 13.3338C16.4498 12.4173 15.9965 11.23 15.9974 9.99982C15.9974 8.73982 16.4674 7.56282 17.2704 6.66582C17.0609 6.21097 16.8098 5.77646 16.5204 5.36782C15.3167 5.62013 14.0622 5.4193 12.9974 4.80382C11.9317 4.18919 11.1305 3.20281 10.7474 2.03382C10.2484 1.98682 9.74737 1.98582 9.24837 2.03282C8.86497 3.20197 8.06338 4.18838 6.99738 4.80282C5.93216 5.41914 4.67685 5.62034 3.47237 5.36782C3.18294 5.77611 2.93251 6.21069 2.72438 6.66582C3.54495 7.58238 3.99826 8.76961 3.99738 9.99982C3.99738 11.2598 3.52738 12.4368 2.72438 13.3338C2.93385 13.7887 3.18491 14.2232 3.47438 14.6318C4.67809 14.3795 5.93258 14.5803 6.99738 15.1958ZM9.99738 12.9998C9.20173 12.9998 8.43866 12.6838 7.87605 12.1211C7.31345 11.5585 6.99738 10.7955 6.99738 9.99982C6.99738 9.20417 7.31345 8.44111 7.87605 7.8785C8.43866 7.31589 9.20173 6.99982 9.99738 6.99982C10.793 6.99982 11.5561 7.31589 12.1187 7.8785C12.6813 8.44111 12.9974 9.20417 12.9974 9.99982C12.9974 10.7955 12.6813 11.5585 12.1187 12.1211C11.5561 12.6838 10.793 12.9998 9.99738 12.9998ZM9.99738 10.9998C10.2626 10.9998 10.5169 10.8945 10.7045 10.7069C10.892 10.5194 10.9974 10.265 10.9974 9.99982C10.9974 9.73461 10.892 9.48025 10.7045 9.29272C10.5169 9.10518 10.2626 8.99982 9.99738 8.99982C9.73216 8.99982 9.4778 9.10518 9.29027 9.29272C9.10273 9.48025 8.99738 9.73461 8.99738 9.99982C8.99738 10.265 9.10273 10.5194 9.29027 10.7069C9.4778 10.8945 9.73216 10.9998 9.99738 10.9998Z" fill="#F0F4F7"/>
</svg>
