<svg width="16" height="16" viewBox="0 0 16 16"  xmlns="http://www.w3.org/2000/svg">
<path d="M1.43463e-07 12.1026C2.37551e-07 14.2551 1.74494 16 3.89744 16H12.1026C14.2551 16 16 14.2551 16 12.1026V8.82051C16 6.66802 14.2551 4.92308 12.1026 4.92308H11.6923C11.3524 4.92308 11.0769 5.19859 11.0769 5.53846C11.0769 5.87833 11.3524 6.15385 11.6923 6.15385H12.1026C13.5753 6.15385 14.7692 7.34775 14.7692 8.82051V12.1026C14.7692 13.5753 13.5753 14.7692 12.1026 14.7692H3.89744C2.42468 14.7692 1.23077 13.5753 1.23077 12.1026L1.23077 8.82051C1.23077 7.34775 2.42468 6.15385 3.89744 6.15385H4.30769C4.64756 6.15385 4.92308 5.87833 4.92308 5.53846C4.92308 5.19859 4.64756 4.92308 4.30769 4.92308H3.89744C1.74494 4.92308 -9.40885e-08 6.66802 0 8.82051L1.43463e-07 12.1026Z"/>
<path d="M5.10332 8.43514C4.863 8.19482 4.863 7.80518 5.10332 7.56486C5.34364 7.32453 5.73328 7.32453 5.9736 7.56486L7.38462 8.97587L7.38462 0.615385C7.38462 0.275517 7.66013 1.48561e-08 8 0C8.33987 -1.48561e-08 8.61539 0.275517 8.61539 0.615385L8.61539 8.97587L10.0264 7.56486C10.2667 7.32453 10.6564 7.32453 10.8967 7.56486C11.137 7.80518 11.137 8.19482 10.8967 8.43514L8.43514 10.8967C8.19482 11.137 7.80518 11.137 7.56486 10.8967L5.10332 8.43514Z" />
</svg>
