<svg width="161" height="72" viewBox="0 0 161 72" fill="none" xmlns="http://www.w3.org/2000/svg">
<g clip-path="url(#clip0_28_6254)">
<path d="M46.8804 64.2296H44.0972V68.5398H42.7426V57.8307H46.6636C48.432 57.8307 50.2005 58.7716 50.2005 61.0769C50.2005 62.5695 48.9837 64.2296 46.8754 64.2296H46.8804ZM46.6981 59.077H44.0972V62.9833H46.7572C48.1266 62.9833 48.7867 61.9685 48.7867 61.0277C48.7867 59.7174 47.8951 59.0721 46.6932 59.0721L46.6981 59.077Z" />
<path d="M56.6632 62.1213C57.0179 62.673 57.1854 63.4759 57.1854 64.4611C57.1854 65.7665 57.0622 66.6285 56.7076 67.2295C56.1854 68.1211 55.1707 68.6285 53.9687 68.6285C52.8752 68.6285 51.9688 68.2442 51.4467 67.4758C51.0329 66.8453 50.8752 65.9684 50.8752 64.7517C50.8752 63.8897 50.9688 63.1656 51.2595 62.5646C51.7668 61.471 52.8111 60.8405 54.1362 60.8405C55.2298 60.8405 56.1362 61.3036 56.6583 62.1163L56.6632 62.1213ZM52.4171 63.0621C52.2003 63.5252 52.156 64.0916 52.1412 64.7714C52.1412 65.4463 52.1708 65.9881 52.3727 66.4315C52.6634 67.0916 53.2348 67.4758 53.9884 67.4758C54.8062 67.4758 55.4958 67.062 55.7864 66.1211C55.8948 65.7517 55.9096 65.3231 55.9096 64.5054C55.9096 63.9192 55.8652 63.4611 55.7076 63.0917C55.417 62.338 54.816 61.9833 54.0919 61.9833C53.3678 61.9833 52.7225 62.3823 52.4171 63.0621Z" />
<path d="M61.8947 68.6284C60.1411 68.6284 58.4318 67.5349 58.4318 64.7369C58.4318 61.939 60.1411 60.8307 61.8947 60.8307C62.9095 60.8307 63.7419 61.2641 64.3872 61.8897L63.5695 62.8158C63.1558 62.3528 62.5548 62.0474 61.9538 62.0474C60.5253 62.0474 59.6928 62.9242 59.6928 64.7419C59.6928 66.5595 60.5253 67.4314 61.9538 67.4314C62.5991 67.4314 63.2001 67.0472 63.5695 66.6482L64.402 67.5546C63.7567 68.1999 62.9242 68.6334 61.8947 68.6334V68.6284Z" />
<path d="M68.8698 62.0129V68.5349H67.594V62.0129H65.2098V60.9193H71.2737V62.0129H68.8748H68.8698Z" />
<path d="M77.6823 62.1213C78.037 62.673 78.2044 63.4759 78.2044 64.4611C78.2044 65.7665 78.0813 66.6285 77.7266 67.2295C77.2045 68.1211 76.1897 68.6285 74.9878 68.6285C73.8942 68.6285 72.9879 68.2442 72.4657 67.4758C72.0519 66.8453 71.8943 65.9684 71.8943 64.7517C71.8943 63.8897 71.9879 63.1656 72.2785 62.5646C72.7859 61.471 73.8302 60.8405 75.1553 60.8405C76.2488 60.8405 77.1552 61.3036 77.6774 62.1163L77.6823 62.1213ZM73.4361 63.0621C73.2194 63.5252 73.175 64.0916 73.1603 64.7714C73.1603 65.4463 73.1898 65.9881 73.3918 66.4315C73.6824 67.0916 74.2538 67.4758 75.0075 67.4758C75.8252 67.4758 76.5148 67.062 76.8055 66.1211C76.9138 65.7517 76.9286 65.3231 76.9286 64.5054C76.9286 63.9192 76.8843 63.4611 76.7267 63.0917C76.436 62.338 75.8351 61.9833 75.1109 61.9833C74.3868 61.9833 73.7415 62.3823 73.4361 63.0621Z" />
<path d="M83.4063 68.5349H79.7759V60.9045H83.0664C84.7757 60.9045 85.6526 61.8257 85.6526 63.0129C85.6526 63.599 85.3619 64.2296 84.5885 64.5842C85.4801 64.8749 85.8348 65.5694 85.8348 66.2935C85.8348 67.5989 84.7265 68.5398 83.4014 68.5398L83.4063 68.5349ZM81.0517 62.0129V64.136H82.9285C83.9925 64.136 84.3767 63.6581 84.3767 63.0572C84.3767 62.4562 83.8989 62.0129 82.9285 62.0129H81.0517ZM81.0517 65.1359V67.3674H83.1157C84.1009 67.3674 84.5787 66.86 84.5787 66.2738C84.5787 65.6876 84.1009 65.1359 83.1157 65.1359H81.0517Z" />
<path d="M87.0663 64.998V63.8453H91.4996V64.998H87.0663Z" />
<path d="M97.9871 68.5349V65.1951H94.465V68.5349H93.1892V60.9045H94.465V64.1803H97.9871V60.9045H99.2481V68.5349H97.9871Z" />
<path d="M106.79 63.2887V68.5349H105.514V67.8748L105.499 67.86C105.223 68.3083 104.42 68.6284 103.391 68.6284C101.652 68.6284 100.682 67.6728 100.682 66.3674C100.682 65.1852 101.48 64.1212 103.115 64.1212H105.514V63.2592C105.514 62.4267 104.992 62.0129 103.76 62.0129C102.805 62.0129 102.283 62.274 101.943 62.673L101.145 61.8257C101.711 61.1656 102.667 60.8257 103.711 60.8257C105.356 60.8257 106.79 61.3479 106.79 63.2887ZM103.544 67.4758C104.529 67.4758 105.514 67.1999 105.514 66.062V65.1704H103.42C102.435 65.1704 101.884 65.5842 101.884 66.2935C101.884 67.0029 102.421 67.4758 103.549 67.4758H103.544Z"/>
<path d="M108.356 64.998V63.8453H112.79V64.998H108.356Z" />
<path d="M114.726 67.3378C115.927 66.5398 116.001 65.3083 116.11 62.338L116.248 57.8307H123.095L123.11 67.3526H124.095V70.8303H122.77V68.5398H115.233V70.8303H113.893V67.525L114.726 67.3378ZM117.499 59.013L117.39 62.274C117.297 64.7369 117.238 66.3674 116.528 67.3526H121.745V59.013H117.499Z" />
<path d="M130.769 62.1213C131.124 62.673 131.292 63.4759 131.292 64.4611C131.292 65.7665 131.168 66.6285 130.814 67.2295C130.292 68.1211 129.277 68.6285 128.075 68.6285C126.981 68.6285 126.075 68.2442 125.553 67.4758C125.139 66.8453 124.981 65.9684 124.981 64.7517C124.981 63.8897 125.075 63.1656 125.366 62.5646C125.873 61.471 126.917 60.8405 128.242 60.8405C129.336 60.8405 130.242 61.3036 130.765 62.1163L130.769 62.1213ZM126.523 63.0621C126.307 63.5252 126.262 64.0916 126.247 64.7714C126.247 65.4463 126.277 65.9881 126.479 66.4315C126.77 67.0916 127.341 67.4758 128.095 67.4758C128.912 67.4758 129.602 67.062 129.893 66.1211C130.001 65.7517 130.016 65.3231 130.016 64.5054C130.016 63.9192 129.971 63.4611 129.814 63.0917C129.523 62.338 128.922 61.9833 128.198 61.9833C127.474 61.9833 126.829 62.3823 126.523 63.0621Z" />
<path d="M137.523 68.5349V65.1951H134.001V68.5349H132.725V60.9045H134.001V64.1803H137.523V60.9045H138.784V68.5349H137.523Z" />
<path d="M143.557 70.1506C143.114 71.3968 142.375 71.6136 141.542 71.6136H140.897V70.5052H141.528C141.941 70.5052 142.267 70.3033 142.483 69.6432L142.897 68.3821L140.094 60.9045H141.493L142.71 64.3675L143.493 66.7664H143.537L144.321 64.3823L145.508 60.9045H146.833L143.557 70.1506Z" />
<path d="M27.9104 2.11324V9.00958L17.0487 5.39885V3.8147e-06L27.9104 2.11324Z" fill="url(#paint0_linear_28_6254)"/>
<path d="M27.9105 9.01943V2.11324L0 5.75845V23.6298L27.9105 9.01943Z" fill="url(#paint1_linear_28_6254)"/>
<path d="M37.8855 13.8321V21.3245L0 23.6249V5.75845L37.8855 13.8321Z" fill="url(#paint2_linear_28_6254)"/>
<path d="M37.8856 13.8321V21.3245L11.0637 68.5349V29.004L37.8856 13.8321Z" fill="url(#paint3_linear_28_6254)"/>
<path d="M51.2792 30.7577L47.6587 49.2842H42.7573L46.3434 30.7577H40.1909L41.048 26.3834H58.2593L57.4022 30.7577H51.2842H51.2792Z" />
<path d="M68.8156 49.2842L70.6579 39.9397H63.2887L61.4809 49.2842H56.545L60.9833 26.3834H65.9191L64.1409 35.5654H71.5101L73.2884 26.3834H78.1897L73.7465 49.2842H68.8107H68.8156Z" />
<path d="M96.0267 43.7868C95.1942 45.5651 93.9726 46.9592 92.3766 47.9641C90.7756 48.9739 88.8102 49.4763 86.4851 49.4763C84.9925 49.4763 83.7266 49.2349 82.6872 48.7522C81.6429 48.2695 80.8153 47.6192 80.2045 46.7966C79.5888 45.974 79.1848 45.0183 78.9878 43.9346C78.7908 42.8509 78.8105 41.713 79.0568 40.5308L80.106 35.1319C80.3277 33.9448 80.6873 32.8167 81.1946 31.7429C81.6971 30.669 82.3572 29.7183 83.1699 28.8957C83.9827 28.073 84.9679 27.4228 86.1304 26.9401C87.293 26.4573 88.6525 26.216 90.2141 26.216C92.3864 26.216 94.0809 26.7282 95.2977 27.7479C96.5144 28.7676 97.3764 30.1764 97.8788 31.9744L93.209 33.7822C93.145 33.4522 93.0219 33.1123 92.8494 32.7625C92.6721 32.4128 92.4455 32.0975 92.1598 31.8266C91.8741 31.5508 91.5342 31.3242 91.1401 31.137C90.7461 30.9498 90.283 30.8562 89.7559 30.8562C89.0318 30.8562 88.4161 30.9646 87.8989 31.1862C87.3816 31.4079 86.9481 31.6985 86.5984 32.0581C86.2487 32.4177 85.9679 32.8315 85.7561 33.2896C85.5492 33.7527 85.4014 34.2108 85.3127 34.6689L84.096 40.8904C83.9876 41.3928 83.9679 41.8756 84.0468 42.3386C84.1206 42.8016 84.2832 43.2056 84.5246 43.5553C84.7659 43.9051 85.1058 44.1908 85.5443 44.4124C85.9827 44.6341 86.5196 44.7425 87.155 44.7425C88.1846 44.7425 89.0515 44.4863 89.7559 43.9691C90.4604 43.4519 90.9825 42.7819 91.3372 41.9445L96.0415 43.7868H96.0267Z" />
<path d="M100.721 37.2107C101.253 36.2304 101.884 35.526 102.608 35.1024C103.332 34.6738 104.223 34.462 105.273 34.462C106.09 34.462 106.775 34.6049 107.327 34.8906C107.878 35.1763 108.312 35.5506 108.627 36.0137C108.942 36.4816 109.139 37.0137 109.223 37.6146C109.302 38.2156 109.282 38.8313 109.159 39.4619L108.47 42.9544C108.346 43.5849 108.154 44.1858 107.903 44.7474C107.647 45.309 107.317 45.8016 106.908 46.2252C106.499 46.6488 106.007 46.9789 105.43 47.2301C104.854 47.4764 104.184 47.5995 103.416 47.5995C102.361 47.5995 101.47 47.3483 100.741 46.8459C100.007 46.3434 99.5093 45.6833 99.2334 44.8656L100.854 44.176C100.987 44.8114 101.288 45.2745 101.746 45.5799C102.204 45.8853 102.751 46.038 103.381 46.038C103.952 46.038 104.435 45.9444 104.839 45.7572C105.243 45.57 105.583 45.3237 105.859 45.0134C106.135 44.7031 106.356 44.3484 106.519 43.9543C106.681 43.5553 106.805 43.1563 106.888 42.7475L107.115 41.6342H102.731L103.012 40.2205H107.396L107.543 39.2894C107.603 38.8806 107.612 38.4767 107.563 38.0875C107.514 37.6934 107.396 37.3486 107.209 37.0432C107.021 36.7378 106.76 36.4915 106.415 36.3043C106.076 36.1171 105.647 36.0235 105.125 36.0235C104.366 36.0235 103.765 36.2009 103.312 36.5555C102.859 36.9053 102.475 37.3782 102.15 37.9594L100.716 37.2156L100.721 37.2107Z" />
<path d="M116.849 47.5404L117.962 41.7229H112.371L111.238 47.5404H109.622L112.149 34.6049H113.745L112.647 40.3091H118.243L119.356 34.6049H120.952L118.445 47.5404H116.849Z" />
<path d="M121.198 47.5404L123.725 34.6049H131.548L131.252 36.1073H125.026L124.228 40.3091H129.691L129.415 41.7229H123.952L123.095 46.0331H129.878L129.602 47.5404H121.203H121.198Z" />
<path d="M132.7 47.5404H131.085L133.612 34.6049H138.163C138.68 34.6049 139.158 34.6738 139.592 34.8068C140.025 34.9448 140.4 35.1516 140.715 35.4275C141.03 35.7083 141.276 36.0482 141.449 36.462C141.621 36.8708 141.71 37.3486 141.71 37.8954C141.71 38.5506 141.582 39.1515 141.331 39.6983C141.074 40.2451 140.735 40.7081 140.311 41.1022C139.882 41.4914 139.385 41.7968 138.813 42.0135C138.242 42.2302 137.641 42.3386 137.011 42.3386H133.705L132.7 47.5404ZM140.04 38.1023C140.04 37.4324 139.843 36.9348 139.439 36.6048C139.04 36.2748 138.518 36.1122 137.887 36.1122H134.912L134.001 40.8313H137.144C137.538 40.8313 137.912 40.7623 138.267 40.6293C138.616 40.4914 138.927 40.3042 139.188 40.0628C139.449 39.8215 139.656 39.5308 139.808 39.2008C139.961 38.8658 140.04 38.5013 140.04 38.1023Z" />
<path d="M145.335 36.1122L143.124 47.5404H141.508L144.035 34.6049H152.045L151.749 36.1073H145.335V36.1122Z" />
<path d="M156.852 34.5113C157.458 34.5113 158.02 34.6049 158.527 34.792C159.034 34.9792 159.468 35.2354 159.837 35.5704C160.207 35.9053 160.488 36.3043 160.695 36.7723C160.897 37.2353 161 37.7476 161 38.3043C161 38.6047 160.97 38.9348 160.916 39.3092C160.862 39.6835 160.793 40.0678 160.719 40.4717C160.645 40.8756 160.562 41.2795 160.468 41.6884C160.374 42.0972 160.291 42.4864 160.217 42.8608C160.069 43.58 159.847 44.2351 159.557 44.8213C159.266 45.4124 158.901 45.9149 158.468 46.3336C158.035 46.7572 157.527 47.0823 156.946 47.3089C156.365 47.5355 155.7 47.6537 154.961 47.6537C154.222 47.6537 153.606 47.5552 153.089 47.3532C152.577 47.1562 152.158 46.8804 151.838 46.5355C151.513 46.1858 151.281 45.7819 151.128 45.3188C150.981 44.8558 150.902 44.3533 150.902 43.8213C150.902 43.5258 150.931 43.181 150.985 42.7918C151.04 42.4027 151.109 41.9987 151.192 41.5849C151.271 41.1712 151.36 40.7574 151.458 40.3387C151.557 39.9249 151.646 39.5407 151.719 39.1959C151.867 38.5407 152.069 37.925 152.32 37.3535C152.577 36.7871 152.907 36.2895 153.315 35.8659C153.724 35.4423 154.217 35.1122 154.793 34.8709C155.37 34.6295 156.054 34.5113 156.842 34.5113H156.852ZM156.744 35.9792C156.163 35.9792 155.67 36.0827 155.266 36.2846C154.862 36.4915 154.522 36.7477 154.242 37.0678C153.966 37.3831 153.749 37.7427 153.591 38.1466C153.439 38.5506 153.32 38.9446 153.246 39.3289L152.577 42.7672C152.488 43.2105 152.458 43.644 152.483 44.0578C152.508 44.4716 152.616 44.8361 152.798 45.1563C152.985 45.4715 153.261 45.7277 153.626 45.9198C153.99 46.1119 154.478 46.2055 155.084 46.2055C155.581 46.2055 156.02 46.1168 156.414 45.9346C156.803 45.7523 157.143 45.5109 157.434 45.2104C157.724 44.905 157.97 44.5454 158.168 44.1218C158.365 43.6982 158.522 43.2499 158.631 42.7672C158.704 42.4322 158.783 42.0775 158.872 41.7081C158.961 41.3386 159.039 40.9643 159.113 40.5948C159.187 40.2254 159.251 39.8658 159.3 39.516C159.35 39.1712 159.374 38.8609 159.374 38.585C159.374 37.8166 159.148 37.191 158.7 36.7082C158.246 36.2255 157.591 35.9841 156.739 35.9841L156.744 35.9792Z" />
</g>
<defs>
<linearGradient id="paint0_linear_28_6254" x1="17.0286" y1="4.65804" x2="27.9701" y2="4.36389" gradientUnits="userSpaceOnUse">
<stop stop-color="#00B26B"/>
<stop offset="0.5" stop-color="#00C0E8"/>
<stop offset="1" stop-color="#4E72B8"/>
</linearGradient>
<linearGradient id="paint1_linear_28_6254" x1="27.9154" y1="12.8715" x2="0" y2="12.8715" gradientUnits="userSpaceOnUse">
<stop stop-color="#FFF45F"/>
<stop offset="0.5" stop-color="#0DB14B"/>
<stop offset="1" stop-color="#2E3192"/>
</linearGradient>
<linearGradient id="paint2_linear_28_6254" x1="37.8855" y1="14.6892" x2="0" y2="14.6892" gradientUnits="userSpaceOnUse">
<stop stop-color="#4E72B8"/>
<stop offset="0.5" stop-color="#00C0E8"/>
<stop offset="1" stop-color="#00B26B"/>
</linearGradient>
<linearGradient id="paint3_linear_28_6254" x1="37.8856" y1="41.181" x2="11.0637" y2="41.181" gradientUnits="userSpaceOnUse">
<stop stop-color="#FFF45F"/>
<stop offset="0.5" stop-color="#0DB14B"/>
<stop offset="1" stop-color="#2E3192"/>
</linearGradient>
<clipPath id="clip0_28_6254">
<rect width="161" height="71.6136" />
</clipPath>
</defs>
</svg>
