<svg viewBox="0 0 102 102" xmlns="http://www.w3.org/2000/svg">
<path fill-rule="evenodd" clip-rule="evenodd" d="M0.624999 76.8333C0.625 90.3873 11.6127 101.375 25.1667 101.375L76.8333 101.375C90.3873 101.375 101.375 90.3873 101.375 76.8333L101.375 56.1667C101.375 42.6127 90.3873 31.625 76.8333 31.625L74.25 31.625C72.1099 31.625 70.375 33.3599 70.375 35.5C70.375 37.6401 72.1099 39.375 74.25 39.375L76.8333 39.375C86.1071 39.375 93.625 46.8929 93.625 56.1667L93.625 76.8333C93.625 86.1071 86.1071 93.625 76.8333 93.625L25.1667 93.625C15.8929 93.625 8.375 86.1071 8.375 76.8333L8.375 56.1667C8.375 46.8929 15.8929 39.375 25.1667 39.375L27.75 39.375C29.8901 39.375 31.625 37.6401 31.625 35.5C31.625 33.3599 29.8901 31.625 27.75 31.625L25.1667 31.625C11.6127 31.625 0.624997 42.6127 0.624998 56.1667L0.624999 76.8333ZM32.76 17.26C31.2467 18.7732 31.2467 21.2268 32.76 22.74C34.2732 24.2533 36.7268 24.2533 38.24 22.74L47.125 13.8551L47.125 66.5C47.125 68.6401 48.8599 70.375 51 70.375C53.1401 70.375 54.875 68.6401 54.875 66.5L54.875 13.8551L63.76 22.74C65.2732 24.2533 67.7267 24.2533 69.24 22.74C70.7533 21.2268 70.7533 18.7732 69.24 17.26L53.74 1.75997C52.2268 0.246687 49.7732 0.246687 48.26 1.75997L32.76 17.26Z"/>
</svg>
